<?xml version="1.0" encoding="UTF-8" standalone="no" ?>
<!DOCTYPE svg PUBLIC "-//W3C//DTD SVG 1.1//EN" "http://www.w3.org/Graphics/SVG/1.1/DTD/svg11.dtd">
<svg xmlns="http://www.w3.org/2000/svg" xmlns:xlink="http://www.w3.org/1999/xlink" version="1.1" width="1080" height="1080" viewBox="0 0 1080 1080" xml:space="preserve">
<desc>Created with Fabric.js 5.2.4</desc>
<defs>
</defs>
<g transform="matrix(1 0 0 1 540 540)" id="5b150b1e-2356-4de7-b910-458b3f477895"  >
<rect style="stroke: none; stroke-width: 1; stroke-dasharray: none; stroke-linecap: butt; stroke-dashoffset: 0; stroke-linejoin: miter; stroke-miterlimit: 4; fill: rgb(255,255,255); fill-rule: nonzero; opacity: 1; visibility: hidden;" vector-effect="non-scaling-stroke"  x="-540" y="-540" rx="0" ry="0" width="1080" height="1080" />
</g>
<g transform="matrix(1 0 0 1 540 540)" id="4e900b27-7ca7-4798-b7c9-ba297efd29fc"  >
</g>
<g transform="matrix(4.23 0 0 4.23 540 559.06)"  >
<g style="" vector-effect="non-scaling-stroke"   >
		<g transform="matrix(0.13 0 0 -0.13 -3.83 -35.97)"  >
<path style="stroke: none; stroke-width: 1; stroke-dasharray: none; stroke-linecap: butt; stroke-dashoffset: 0; stroke-linejoin: miter; stroke-miterlimit: 4; fill: rgb(0,0,0); fill-rule: nonzero; opacity: 1;" vector-effect="non-scaling-stroke"  transform=" translate(-1503.71, -2084.27)" d="M 852 2624 C 770 2604 674 2539 637 2478 C 584 2392 590 2277 651 2225 C 692 2191 730 2193 770 2230 C 795 2253 801 2266 798 2291 C 796 2310 786 2328 774 2337 C 756 2349 750 2348 731 2333 L 709 2315 L 730 2287 C 753 2257 751 2230 725 2230 C 671 2230 625 2306 632 2382 C 641 2469 732 2564 833 2591 C 887 2606 1006 2598 1046 2577 C 1090 2554 1140 2502 1157 2463 C 1193 2374 1172 2245 1112 2187 C 1074 2150 929 2090 879 2090 L 840 2090 L 840 1928 C 840 1738 827 1692 768 1666 C 741 1654 739 1651 757 1651 C 785 1650 847 1677 878 1704 C 900 1723 900 1723 923 1703 C 948 1680 1043 1620 1055 1620 C 1059 1620 1057 1626 1051 1633 C 1045 1641 1043 1649 1046 1653 C 1049 1656 1042 1661 1031 1665 C 1019 1668 998 1688 982 1707 C 955 1743 955 1745 952 1922 C 949 2029 952 2100 957 2100 C 973 2100 996 2068 1023 2008 C 1064 1917 1138 1810 1206 1743 C 1285 1665 1431 1591 1575 1554 C 1667 1531 1688 1529 1840 1533 C 2021 1538 2096 1554 2197 1611 C 2386 1718 2465 1905 2359 1995 C 2329 2020 2270 2030 2270 2010 C 2270 2005 2274 2000 2280 2000 C 2285 2000 2297 1986 2306 1968 C 2332 1917 2320 1839 2274 1773 C 2143 1583 1807 1526 1510 1642 C 1349 1705 1237 1817 1140 2009 C 1123 2044 1097 2084 1084 2097 C 1070 2111 1060 2123 1062 2124 C 1064 2125 1087 2135 1115 2145 C 1186 2171 1265 2248 1279 2305 C 1313 2442 1262 2548 1133 2607 C 1063 2639 943 2647 852 2624 z M 1186 2538 C 1248 2483 1278 2383 1254 2308 C 1246 2282 1205 2229 1183 2217 C 1171 2210 1171 2213 1184 2238 C 1224 2315 1211 2442 1155 2524 C 1141 2544 1130 2563 1130 2565 C 1130 2578 1153 2567 1186 2538 z M 1106 2008 C 1152 1916 1220 1818 1283 1753 C 1316 1718 1340 1690 1337 1690 C 1316 1690 1276 1720 1220 1778 C 1132 1870 1124 1880 1068 1988 C 1033 2055 1022 2085 1030 2090 C 1047 2100 1074 2070 1106 2008 z M 921 2053 C 922 2048 924 1975 926 1890 L 929 1735 L 897 1734 L 865 1734 L 868 1884 C 869 1967 873 2041 875 2048 C 880 2061 919 2065 921 2053 z M 2374 1914 C 2390 1872 2357 1781 2306 1728 C 2264 1684 2257 1695 2293 1748 C 2323 1789 2338 1817 2345 1843 C 2347 1847 2348 1868 2349 1890 C 2350 1931 2363 1943 2374 1914 z" stroke-linecap="round" />
</g>
		<g transform="matrix(0.13 0 0 -0.13 1.68 -75.71)"  >
<path style="stroke: none; stroke-width: 1; stroke-dasharray: none; stroke-linecap: butt; stroke-dashoffset: 0; stroke-linejoin: miter; stroke-miterlimit: 4; fill: rgb(0,0,0); fill-rule: nonzero; opacity: 1;" vector-effect="non-scaling-stroke"  transform=" translate(-1545, -2382.32)" d="M 1411 2574 C 1369 2562 1320 2526 1320 2508 C 1320 2503 1335 2510 1353 2524 C 1418 2574 1482 2567 1542 2503 C 1582 2460 1606 2405 1636 2288 L 1663 2180 L 1717 2180 C 1762 2180 1770 2183 1770 2199 C 1770 2233 1719 2422 1700 2460 C 1650 2558 1524 2608 1411 2574 z M 1603 2518 C 1666 2485 1719 2370 1733 2235 C 1736 2208 1695 2201 1687 2227 C 1685 2237 1673 2281 1661 2325 C 1649 2369 1623 2433 1605 2468 C 1568 2533 1568 2537 1603 2518 z" stroke-linecap="round" />
</g>
		<g transform="matrix(0.13 0 0 -0.13 40.7 -85.4)"  >
<path style="stroke: none; stroke-width: 1; stroke-dasharray: none; stroke-linecap: butt; stroke-dashoffset: 0; stroke-linejoin: miter; stroke-miterlimit: 4; fill: rgb(0,0,0); fill-rule: nonzero; opacity: 1;" vector-effect="non-scaling-stroke"  transform=" translate(-1837.63, -2455)" d="M 1838 2557 C 1808 2532 1780 2481 1780 2450 C 1780 2405 1844 2329 1882 2330 C 1890 2331 1887 2337 1876 2345 C 1865 2353 1859 2360 1863 2360 C 1866 2360 1858 2371 1845 2384 C 1832 2397 1818 2420 1814 2435 C 1805 2471 1836 2535 1874 2560 C 1899 2576 1901 2580 1885 2580 C 1874 2580 1853 2570 1838 2557 z" stroke-linecap="round" />
</g>
		<g transform="matrix(0.13 0 0 -0.13 87.21 -40.06)"  >
<path style="stroke: none; stroke-width: 1; stroke-dasharray: none; stroke-linecap: butt; stroke-dashoffset: 0; stroke-linejoin: miter; stroke-miterlimit: 4; fill: rgb(0,0,0); fill-rule: nonzero; opacity: 1;" vector-effect="non-scaling-stroke"  transform=" translate(-2186.5, -2115)" d="M 2351 2547 C 2303 2523 2258 2465 2234 2398 C 2193 2281 2134 2014 2120 1875 C 2114 1822 2104 1767 2096 1752 L 2082 1725 L 2071 1752 C 2065 1767 2054 1807 2045 1840 C 2036 1873 2014 1951 1994 2012 C 1957 2131 1939 2290 1959 2320 C 1964 2328 1971 2332 1973 2330 C 1975 2327 1994 2249 2015 2155 C 2058 1962 2093 1844 2098 1876 C 2104 1914 1974 2480 1959 2480 C 1954 2480 1953 2474 1956 2466 C 1959 2458 1952 2418 1941 2378 C 1929 2337 1920 2279 1920 2249 C 1920 2199 1967 1994 2020 1810 C 2030 1774 2044 1726 2050 1703 L 2061 1660 L 2089 1693 C 2108 1714 2128 1760 2148 1825 C 2256 2184 2334 2422 2358 2470 C 2373 2501 2400 2534 2419 2547 L 2453 2570 L 2424 2570 C 2408 2570 2375 2560 2351 2547 z M 2301 2409 C 2224 2161 2195 2077 2192 2093 C 2190 2103 2193 2116 2198 2123 C 2203 2130 2208 2152 2208 2173 C 2209 2193 2213 2218 2218 2228 C 2223 2237 2233 2270 2240 2300 C 2247 2330 2257 2361 2263 2368 C 2268 2374 2270 2380 2266 2380 C 2263 2380 2271 2403 2286 2431 C 2300 2459 2314 2480 2316 2477 C 2319 2474 2312 2444 2301 2409 z" stroke-linecap="round" />
</g>
		<g transform="matrix(0.13 0 0 -0.13 -97.49 -70.01)"  >
<path style="stroke: none; stroke-width: 1; stroke-dasharray: none; stroke-linecap: butt; stroke-dashoffset: 0; stroke-linejoin: miter; stroke-miterlimit: 4; fill: rgb(0,0,0); fill-rule: nonzero; opacity: 1;" vector-effect="non-scaling-stroke"  transform=" translate(-801.18, -2339.6)" d="M 733 2512 C 683 2467 650 2414 651 2380 C 652 2360 653 2359 657 2375 C 667 2413 759 2530 780 2530 C 786 2530 802 2519 815 2505 C 840 2481 840 2478 840 2312 C 840 2127 839 2130 898 2130 C 948 2130 949 2134 951 2319 C 953 2515 950 2523 874 2540 C 802 2557 778 2552 733 2512 z M 904 2487 C 926 2465 927 2459 924 2321 C 921 2174 914 2146 885 2170 C 872 2180 870 2206 871 2309 C 871 2379 869 2453 865 2473 C 857 2517 870 2521 904 2487 z" stroke-linecap="round" />
</g>
		<g transform="matrix(0.13 0 0 -0.13 45.97 -91.08)"  >
<path style="stroke: none; stroke-width: 1; stroke-dasharray: none; stroke-linecap: butt; stroke-dashoffset: 0; stroke-linejoin: miter; stroke-miterlimit: 4; fill: rgb(0,0,0); fill-rule: nonzero; opacity: 1;" vector-effect="non-scaling-stroke"  transform=" translate(-1877.17, -2497.65)" d="M 1864 2516 C 1844 2496 1830 2472 1830 2459 C 1831 2438 1834 2440 1851 2473 C 1862 2494 1885 2520 1903 2530 C 1926 2545 1930 2550 1917 2550 C 1906 2550 1883 2535 1864 2516 z" stroke-linecap="round" />
</g>
		<g transform="matrix(0.13 0 0 -0.13 -16.8 -93)"  >
<path style="stroke: none; stroke-width: 1; stroke-dasharray: none; stroke-linecap: butt; stroke-dashoffset: 0; stroke-linejoin: miter; stroke-miterlimit: 4; fill: rgb(0,0,0); fill-rule: nonzero; opacity: 1;" vector-effect="non-scaling-stroke"  transform=" translate(-1406.37, -2512.03)" d="M 1393 2520 C 1375 2509 1360 2495 1360 2489 C 1360 2481 1367 2483 1378 2493 C 1388 2502 1411 2516 1430 2524 C 1454 2535 1459 2539 1445 2540 C 1434 2540 1410 2531 1393 2520 z" stroke-linecap="round" />
</g>
		<g transform="matrix(0.13 0 0 -0.13 116.29 -85.77)"  >
<path style="stroke: none; stroke-width: 1; stroke-dasharray: none; stroke-linecap: butt; stroke-dashoffset: 0; stroke-linejoin: miter; stroke-miterlimit: 4; fill: rgb(0,0,0); fill-rule: nonzero; opacity: 1;" vector-effect="non-scaling-stroke"  transform=" translate(-2404.57, -2457.83)" d="M 2420 2520 C 2399 2499 2357 2419 2346 2380 C 2342 2366 2355 2387 2374 2426 C 2398 2474 2421 2505 2442 2519 C 2465 2533 2469 2540 2458 2540 C 2448 2540 2431 2531 2420 2520 z" stroke-linecap="round" />
</g>
		<g transform="matrix(0.13 0 0 -0.13 12.59 -28.32)"  >
<path style="stroke: none; stroke-width: 1; stroke-dasharray: none; stroke-linecap: butt; stroke-dashoffset: 0; stroke-linejoin: miter; stroke-miterlimit: 4; fill: rgb(0,0,0); fill-rule: nonzero; opacity: 1;" vector-effect="non-scaling-stroke"  transform=" translate(-1626.79, -2026.91)" d="M 1413 2399 C 1387 2386 1367 2341 1366 2294 C 1364 2244 1350 2240 1350 2291 C 1349 2328 1348 2332 1338 2316 C 1319 2283 1335 2186 1370 2117 C 1443 1976 1558 1837 1632 1799 C 1653 1789 1689 1780 1714 1780 C 1763 1780 1759 1786 1786 1677 C 1796 1634 1808 1636 1820 1682 C 1826 1706 1846 1775 1865 1835 C 1927 2037 1931 2061 1917 2111 C 1901 2164 1899 2161 1870 1995 C 1858 1929 1847 1868 1846 1860 C 1842 1841 1836 1870 1814 2000 C 1805 2058 1791 2116 1785 2129 L 1773 2153 L 1751 2131 C 1740 2120 1727 2110 1724 2110 C 1721 2110 1712 2103 1703 2095 C 1689 2081 1690 2068 1715 1966 C 1738 1865 1744 1851 1765 1846 C 1778 1843 1796 1843 1804 1846 C 1815 1850 1820 1847 1820 1836 C 1820 1824 1810 1820 1777 1820 C 1706 1820 1629 1887 1527 2036 C 1471 2119 1410 2237 1410 2264 C 1410 2272 1405 2282 1399 2286 C 1384 2295 1396 2348 1417 2372 C 1475 2437 1527 2315 1485 2213 C 1477 2193 1471 2176 1473 2174 C 1481 2166 1544 2228 1556 2256 C 1577 2306 1573 2336 1543 2370 C 1512 2405 1451 2418 1413 2399 z M 1410 2170 C 1453 2087 1552 1941 1610 1877 C 1655 1826 1651 1823 1593 1867 C 1552 1897 1417 2082 1390 2144 C 1379 2170 1370 2203 1370 2217 C 1370 2249 1369 2250 1410 2170 z M 1774 2058 C 1776 2043 1788 1997 1799 1955 C 1824 1864 1824 1870 1800 1870 C 1775 1870 1766 1888 1741 1985 C 1722 2059 1722 2066 1737 2082 C 1756 2103 1767 2096 1774 2058 z M 1823 1803 C 1826 1798 1823 1784 1818 1770 C 1809 1746 1808 1746 1794 1764 C 1784 1778 1783 1787 1791 1797 C 1804 1812 1817 1814 1823 1803 z" stroke-linecap="round" />
</g>
		<g transform="matrix(0.13 0 0 -0.13 -100.49 -51.62)"  >
<path style="stroke: none; stroke-width: 1; stroke-dasharray: none; stroke-linecap: butt; stroke-dashoffset: 0; stroke-linejoin: miter; stroke-miterlimit: 4; fill: rgb(0,0,0); fill-rule: nonzero; opacity: 1;" vector-effect="non-scaling-stroke"  transform=" translate(-778.73, -2201.64)" d="M 771 2203 C 744 2185 741 2180 757 2180 C 775 2180 818 2216 809 2223 C 807 2225 790 2216 771 2203 z" stroke-linecap="round" />
</g>
		<g transform="matrix(0.13 0 0 -0.13 -44.72 -47.29)"  >
<path style="stroke: none; stroke-width: 1; stroke-dasharray: none; stroke-linecap: butt; stroke-dashoffset: 0; stroke-linejoin: miter; stroke-miterlimit: 4; fill: rgb(0,0,0); fill-rule: nonzero; opacity: 1;" vector-effect="non-scaling-stroke"  transform=" translate(-1196.99, -2169.22)" d="M 1240 2195 C 1221 2175 1183 2148 1155 2135 C 1128 2122 1111 2111 1118 2110 C 1150 2109 1252 2177 1270 2210 C 1285 2238 1279 2235 1240 2195 z" stroke-linecap="round" />
</g>
		<g transform="matrix(0.13 0 0 -0.13 1.32 -50.4)"  >
<path style="stroke: none; stroke-width: 1; stroke-dasharray: none; stroke-linecap: butt; stroke-dashoffset: 0; stroke-linejoin: miter; stroke-miterlimit: 4; fill: rgb(0,0,0); fill-rule: nonzero; opacity: 1;" vector-effect="non-scaling-stroke"  transform=" translate(-1542.3, -2192.53)" d="M 1535 2188 C 1497 2148 1496 2148 1528 2169 C 1554 2188 1589 2230 1577 2230 C 1576 2230 1556 2211 1535 2188 z" stroke-linecap="round" />
</g>
		<g transform="matrix(0.13 0 0 -0.13 -102.49 -41.47)"  >
<path style="stroke: none; stroke-width: 1; stroke-dasharray: none; stroke-linecap: butt; stroke-dashoffset: 0; stroke-linejoin: miter; stroke-miterlimit: 4; fill: rgb(0,0,0); fill-rule: nonzero; opacity: 1;" vector-effect="non-scaling-stroke"  transform=" translate(-763.72, -2125.54)" d="M 698 2147 C 706 2138 721 2128 733 2124 C 745 2120 760 2111 768 2104 C 775 2096 791 2090 803 2091 C 823 2092 823 2093 800 2100 C 777 2107 777 2108 809 2109 C 852 2110 846 2117 784 2134 C 757 2142 724 2152 710 2156 C 688 2163 686 2162 698 2147 z" stroke-linecap="round" />
</g>
		<g transform="matrix(0.13 0 0 -0.13 10.14 -32.3)"  >
<path style="stroke: none; stroke-width: 1; stroke-dasharray: none; stroke-linecap: butt; stroke-dashoffset: 0; stroke-linejoin: miter; stroke-miterlimit: 4; fill: rgb(0,0,0); fill-rule: nonzero; opacity: 1;" vector-effect="non-scaling-stroke"  transform=" translate(-1608.42, -2056.79)" d="M 1596 2143 L 1497 2139 L 1531 2121 C 1571 2100 1600 2050 1601 2000 L 1601 1965 L 1617 2000 C 1625 2019 1638 2049 1646 2067 C 1653 2084 1673 2106 1689 2116 C 1720 2135 1730 2152 1708 2148 C 1701 2147 1650 2144 1596 2143 z" stroke-linecap="round" />
</g>
		<g transform="matrix(0.13 0 0 -0.13 -19.83 -19.4)"  >
<path style="stroke: none; stroke-width: 1; stroke-dasharray: none; stroke-linecap: butt; stroke-dashoffset: 0; stroke-linejoin: miter; stroke-miterlimit: 4; fill: rgb(0,0,0); fill-rule: nonzero; opacity: 1;" vector-effect="non-scaling-stroke"  transform=" translate(-1383.69, -1959.99)" d="M 1316 2082 C 1302 2061 1290 2038 1290 2031 C 1290 2024 1286 2021 1281 2025 C 1266 2033 1250 1996 1250 1955 C 1250 1902 1277 1852 1321 1823 C 1354 1801 1368 1798 1414 1802 C 1444 1804 1480 1814 1495 1824 C 1531 1847 1523 1852 1475 1836 C 1427 1819 1388 1831 1361 1869 C 1335 1906 1320 1992 1332 2038 C 1357 2136 1356 2139 1316 2082 z M 1298 1963 C 1297 1958 1300 1942 1305 1927 C 1309 1912 1310 1896 1306 1893 C 1298 1885 1278 1941 1284 1957 C 1290 1971 1301 1975 1298 1963 z" stroke-linecap="round" />
</g>
		<g transform="matrix(0.13 0 0 -0.13 49.06 -5.33)"  >
<path style="stroke: none; stroke-width: 1; stroke-dasharray: none; stroke-linecap: butt; stroke-dashoffset: 0; stroke-linejoin: miter; stroke-miterlimit: 4; fill: rgb(0,0,0); fill-rule: nonzero; opacity: 1;" vector-effect="non-scaling-stroke"  transform=" translate(-1900.33, -1854.5)" d="M 1896 1859 C 1887 1830 1881 1805 1884 1803 C 1886 1801 1895 1822 1904 1851 C 1914 1879 1919 1904 1917 1906 C 1915 1908 1906 1887 1896 1859 z" stroke-linecap="round" />
</g>
		<g transform="matrix(0.13 0 0 -0.13 -50.94 18.61)"  >
<path style="stroke: none; stroke-width: 1; stroke-dasharray: none; stroke-linecap: butt; stroke-dashoffset: 0; stroke-linejoin: miter; stroke-miterlimit: 4; fill: rgb(0,0,0); fill-rule: nonzero; opacity: 1;" vector-effect="non-scaling-stroke"  transform=" translate(-1150.35, -1674.93)" d="M 674 1881 C 641 1861 612 1809 603 1754 C 591 1682 666 1562 750 1520 C 827 1481 957 1470 1095 1491 C 1214 1509 1362 1504 1523 1476 C 1605 1462 1679 1450 1688 1450 C 1723 1451 1674 1468 1545 1501 C 1432 1529 1397 1533 1280 1534 C 1206 1534 1090 1531 1023 1526 C 756 1506 631 1589 639 1779 C 641 1816 701 1870 743 1870 C 765 1870 780 1864 784 1855 C 787 1847 796 1840 805 1840 C 825 1840 824 1845 798 1875 C 771 1906 719 1908 674 1881 z" stroke-linecap="round" />
</g>
		<g transform="matrix(0.13 0 0 -0.13 114.33 5.14)"  >
<path style="stroke: none; stroke-width: 1; stroke-dasharray: none; stroke-linecap: butt; stroke-dashoffset: 0; stroke-linejoin: miter; stroke-miterlimit: 4; fill: rgb(0,0,0); fill-rule: nonzero; opacity: 1;" vector-effect="non-scaling-stroke"  transform=" translate(-2389.89, -1775.94)" d="M 2418 1832 C 2414 1807 2395 1764 2374 1732 C 2351 1696 2345 1682 2359 1694 C 2390 1722 2432 1814 2428 1847 C 2425 1870 2424 1868 2418 1832 z" stroke-linecap="round" />
</g>
		<g transform="matrix(0.13 0 0 -0.13 -110.52 0.88)"  >
<path style="stroke: none; stroke-width: 1; stroke-dasharray: none; stroke-linecap: butt; stroke-dashoffset: 0; stroke-linejoin: miter; stroke-miterlimit: 4; fill: rgb(0,0,0); fill-rule: nonzero; opacity: 1;" vector-effect="non-scaling-stroke"  transform=" translate(-703.51, -1807.95)" d="M 715 1838 C 689 1824 660 1789 660 1770 C 660 1762 670 1770 681 1788 C 693 1806 714 1827 729 1835 C 743 1843 751 1849 745 1849 C 740 1849 726 1844 715 1838 z" stroke-linecap="round" />
</g>
		<g transform="matrix(0.13 0 0 -0.13 -6.88 2.99)"  >
<path style="stroke: none; stroke-width: 1; stroke-dasharray: none; stroke-linecap: butt; stroke-dashoffset: 0; stroke-linejoin: miter; stroke-miterlimit: 4; fill: rgb(0,0,0); fill-rule: nonzero; opacity: 1;" vector-effect="non-scaling-stroke"  transform=" translate(-1480.77, -1792.13)" d="M 1505 1800 C 1494 1795 1469 1791 1451 1791 C 1426 1790 1419 1787 1427 1779 C 1438 1768 1526 1785 1536 1801 C 1542 1812 1532 1811 1505 1800 z" stroke-linecap="round" />
</g>
		<g transform="matrix(0.13 0 0 -0.13 3.52 15.28)"  >
<path style="stroke: none; stroke-width: 1; stroke-dasharray: none; stroke-linecap: butt; stroke-dashoffset: 0; stroke-linejoin: miter; stroke-miterlimit: 4; fill: rgb(0,0,0); fill-rule: nonzero; opacity: 1;" vector-effect="non-scaling-stroke"  transform=" translate(-1558.77, -1699.89)" d="M 1475 1715 C 1502 1694 1593 1668 1627 1672 C 1644 1674 1655 1681 1655 1690 C 1655 1701 1639 1706 1590 1711 C 1554 1714 1509 1720 1490 1724 C 1457 1731 1456 1730 1475 1715 z" stroke-linecap="round" />
</g>
		<g transform="matrix(0.13 0 0 -0.13 40.36 21.04)"  >
<path style="stroke: none; stroke-width: 1; stroke-dasharray: none; stroke-linecap: butt; stroke-dashoffset: 0; stroke-linejoin: miter; stroke-miterlimit: 4; fill: rgb(0,0,0); fill-rule: nonzero; opacity: 1;" vector-effect="non-scaling-stroke"  transform=" translate(-1835.11, -1656.73)" d="M 1830 1665 C 1821 1647 1820 1636 1827 1629 C 1834 1622 1839 1629 1844 1651 C 1847 1669 1849 1685 1847 1687 C 1845 1688 1837 1679 1830 1665 z" stroke-linecap="round" />
</g>
		<g transform="matrix(0.13 0 0 -0.13 -92.45 22.07)"  >
<path style="stroke: none; stroke-width: 1; stroke-dasharray: none; stroke-linecap: butt; stroke-dashoffset: 0; stroke-linejoin: miter; stroke-miterlimit: 4; fill: rgb(0,0,0); fill-rule: nonzero; opacity: 1;" vector-effect="non-scaling-stroke"  transform=" translate(-839.04, -1648.97)" d="M 830 1650 C 794 1634 772 1621 781 1620 C 802 1620 887 1657 895 1670 C 903 1682 907 1684 830 1650 z" stroke-linecap="round" />
</g>
		<g transform="matrix(0.13 0 0 -0.13 67.86 35.41)"  >
<path style="stroke: none; stroke-width: 1; stroke-dasharray: none; stroke-linecap: butt; stroke-dashoffset: 0; stroke-linejoin: miter; stroke-miterlimit: 4; fill: rgb(0,0,0); fill-rule: nonzero; opacity: 1;" vector-effect="non-scaling-stroke"  transform=" translate(-2041.33, -1548.94)" d="M 2315 1623 C 2203 1520 2024 1465 1820 1471 C 1755 1473 1704 1472 1706 1469 C 1708 1465 1733 1457 1760 1450 C 1830 1433 1973 1436 2054 1454 C 2176 1483 2317 1559 2361 1621 C 2396 1671 2369 1672 2315 1623 z" stroke-linecap="round" />
</g>
		<g transform="matrix(0.13 0 0 -0.13 -41.85 28.73)"  >
<path style="stroke: none; stroke-width: 1; stroke-dasharray: none; stroke-linecap: butt; stroke-dashoffset: 0; stroke-linejoin: miter; stroke-miterlimit: 4; fill: rgb(0,0,0); fill-rule: nonzero; opacity: 1;" vector-effect="non-scaling-stroke"  transform=" translate(-1218.51, -1599.06)" d="M 1121 1619 C 1079 1611 1024 1583 1033 1574 C 1035 1572 1061 1575 1091 1581 C 1140 1592 1259 1589 1365 1574 L 1405 1569 L 1363 1589 C 1320 1609 1224 1631 1186 1629 C 1174 1628 1145 1624 1121 1619 z" stroke-linecap="round" />
</g>
		<g transform="matrix(0.13 0 0 -0.13 94.32 37.86)"  >
<path style="stroke: none; stroke-width: 1; stroke-dasharray: none; stroke-linecap: butt; stroke-dashoffset: 0; stroke-linejoin: miter; stroke-miterlimit: 4; fill: rgb(0,0,0); fill-rule: nonzero; opacity: 1;" vector-effect="non-scaling-stroke"  transform=" translate(-2239.8, -1530.54)" d="M 2380 1620 C 2380 1599 2307 1531 2257 1504 C 2228 1489 2174 1466 2135 1454 C 2047 1425 2069 1423 2163 1451 C 2242 1475 2292 1503 2356 1562 C 2397 1600 2412 1630 2390 1630 C 2385 1630 2380 1626 2380 1620 z" stroke-linecap="round" />
</g>
		<g transform="matrix(0.13 0 0 -0.13 98.03 47.4)"  >
<path style="stroke: none; stroke-width: 1; stroke-dasharray: none; stroke-linecap: butt; stroke-dashoffset: 0; stroke-linejoin: miter; stroke-miterlimit: 4; fill: rgb(0,0,0); fill-rule: nonzero; opacity: 1;" vector-effect="non-scaling-stroke"  transform=" translate(-2267.6, -1459.05)" d="M 2260 1460 C 2230 1444 2211 1431 2218 1430 C 2235 1430 2307 1467 2315 1480 C 2323 1493 2323 1493 2260 1460 z" stroke-linecap="round" />
</g>
		<g transform="matrix(0.13 0 0 -0.13 17.98 50.53)"  >
<path style="stroke: none; stroke-width: 1; stroke-dasharray: none; stroke-linecap: butt; stroke-dashoffset: 0; stroke-linejoin: miter; stroke-miterlimit: 4; fill: rgb(0,0,0); fill-rule: nonzero; opacity: 1;" vector-effect="non-scaling-stroke"  transform=" translate(-1667.25, -1435.56)" d="M 1630 1441 C 1671 1428 1727 1419 1710 1429 C 1702 1434 1675 1440 1650 1444 C 1620 1448 1614 1447 1630 1441 z" stroke-linecap="round" />
</g>
		<g transform="matrix(0.13 0 0 -0.13 -17.32 90.04)"  >
<path style="stroke: none; stroke-width: 1; stroke-dasharray: none; stroke-linecap: butt; stroke-dashoffset: 0; stroke-linejoin: miter; stroke-miterlimit: 4; fill: rgb(0,0,0); fill-rule: nonzero; opacity: 1;" vector-effect="non-scaling-stroke"  transform=" translate(-1402.51, -1139.24)" d="M 1390 1239 C 1332 1216 1302 1162 1332 1132 C 1347 1117 1407 1116 1416 1131 C 1420 1139 1416 1140 1401 1135 C 1368 1125 1340 1138 1340 1165 C 1340 1210 1426 1253 1469 1230 C 1510 1209 1485 1138 1419 1091 C 1387 1067 1373 1063 1341 1067 C 1299 1073 1282 1059 1306 1039 C 1318 1029 1328 1029 1350 1037 C 1366 1043 1384 1044 1391 1039 C 1399 1034 1416 1031 1430 1031 C 1451 1032 1449 1033 1420 1042 C 1389 1051 1387 1053 1405 1062 C 1455 1089 1510 1158 1510 1195 C 1510 1238 1447 1261 1390 1239 z" stroke-linecap="round" />
</g>
		<g transform="matrix(0.13 0 0 -0.13 41.68 89.99)"  >
<path style="stroke: none; stroke-width: 1; stroke-dasharray: none; stroke-linecap: butt; stroke-dashoffset: 0; stroke-linejoin: miter; stroke-miterlimit: 4; fill: rgb(0,0,0); fill-rule: nonzero; opacity: 1;" vector-effect="non-scaling-stroke"  transform=" translate(-1844.96, -1139.57)" d="M 1820 1232 C 1776 1210 1750 1168 1766 1143 C 1779 1122 1837 1113 1853 1129 C 1861 1137 1856 1139 1835 1135 C 1764 1122 1763 1187 1834 1223 C 1886 1250 1924 1238 1928 1192 C 1931 1165 1924 1153 1880 1110 C 1831 1062 1828 1061 1784 1067 C 1742 1072 1738 1071 1742 1054 C 1745 1040 1753 1036 1775 1037 C 1819 1041 1822 1041 1860 1035 L 1895 1030 L 1860 1041 C 1829 1051 1827 1053 1845 1062 C 1876 1079 1920 1122 1936 1152 C 1956 1190 1953 1216 1928 1234 C 1899 1255 1863 1254 1820 1232 z" stroke-linecap="round" />
</g>
		<g transform="matrix(0.13 0 0 -0.13 -75.45 90.44)"  >
<path style="stroke: none; stroke-width: 1; stroke-dasharray: none; stroke-linecap: butt; stroke-dashoffset: 0; stroke-linejoin: miter; stroke-miterlimit: 4; fill: rgb(0,0,0); fill-rule: nonzero; opacity: 1;" vector-effect="non-scaling-stroke"  transform=" translate(-966.48, -1136.2)" d="M 920 1202 C 856 1138 858 1051 924 1034 C 1004 1014 1100 1166 1042 1220 C 1007 1252 963 1246 920 1202 z M 989 1210 C 963 1189 969 1183 999 1202 C 1047 1232 1067 1175 1029 1114 C 1003 1071 973 1050 939 1050 C 902 1050 886 1073 893 1115 C 900 1155 924 1191 960 1214 C 996 1236 1017 1234 989 1210 z" stroke-linecap="round" />
</g>
		<g transform="matrix(0.13 0 0 -0.13 -52.16 93.41)"  >
<path style="stroke: none; stroke-width: 1; stroke-dasharray: none; stroke-linecap: butt; stroke-dashoffset: 0; stroke-linejoin: miter; stroke-miterlimit: 4; fill: rgb(0,0,0); fill-rule: nonzero; opacity: 1;" vector-effect="non-scaling-stroke"  transform=" translate(-1141.2, -1113.93)" d="M 1135 1210 C 1131 1196 1117 1176 1103 1164 C 1088 1153 1080 1138 1084 1132 C 1093 1117 1118 1128 1125 1150 C 1137 1188 1205 1178 1216 1137 C 1227 1089 1164 1010 1114 1010 C 1074 1010 1060 1021 1060 1053 C 1060 1075 1057 1081 1049 1073 C 1032 1056 1042 1029 1072 1007 C 1096 989 1104 988 1139 999 C 1184 1012 1224 1057 1234 1106 C 1243 1148 1215 1182 1172 1184 C 1121 1186 1135 1214 1188 1215 C 1211 1216 1235 1221 1240 1226 C 1247 1233 1232 1236 1195 1236 C 1146 1235 1140 1233 1135 1210 z" stroke-linecap="round" />
</g>
		<g transform="matrix(0.13 0 0 -0.13 6.67 93.36)"  >
<path style="stroke: none; stroke-width: 1; stroke-dasharray: none; stroke-linecap: butt; stroke-dashoffset: 0; stroke-linejoin: miter; stroke-miterlimit: 4; fill: rgb(0,0,0); fill-rule: nonzero; opacity: 1;" vector-effect="non-scaling-stroke"  transform=" translate(-1582.42, -1114.35)" d="M 1575 1210 C 1571 1196 1557 1175 1542 1163 C 1520 1145 1517 1139 1528 1128 C 1539 1117 1544 1118 1555 1134 C 1563 1144 1571 1157 1573 1163 C 1578 1178 1630 1174 1647 1157 C 1686 1118 1616 1010 1551 1010 C 1519 1010 1504 1024 1498 1060 C 1494 1081 1492 1082 1486 1067 C 1475 1044 1503 1002 1535 994 C 1565 986 1627 1016 1652 1050 C 1662 1064 1673 1089 1676 1107 C 1681 1133 1677 1144 1656 1165 C 1637 1184 1622 1191 1604 1187 C 1591 1185 1580 1186 1580 1189 C 1581 1207 1599 1216 1633 1216 C 1653 1216 1674 1220 1680 1226 C 1686 1232 1671 1236 1635 1236 C 1586 1236 1581 1234 1575 1210 z" stroke-linecap="round" />
</g>
		<g transform="matrix(0.13 0 0 -0.13 65.44 93.38)"  >
<path style="stroke: none; stroke-width: 1; stroke-dasharray: none; stroke-linecap: butt; stroke-dashoffset: 0; stroke-linejoin: miter; stroke-miterlimit: 4; fill: rgb(0,0,0); fill-rule: nonzero; opacity: 1;" vector-effect="non-scaling-stroke"  transform=" translate(-2023.21, -1114.18)" d="M 2020 1218 C 2020 1209 2006 1187 1989 1169 C 1967 1146 1961 1135 1969 1127 C 1977 1119 1988 1125 2009 1148 C 2039 1180 2056 1182 2088 1157 C 2118 1134 2088 1051 2038 1024 C 2009 1007 1968 1006 1952 1022 C 1945 1029 1940 1045 1940 1060 C 1939 1082 1938 1083 1929 1067 C 1915 1043 1941 1003 1975 994 C 2031 980 2120 1058 2120 1121 C 2120 1155 2076 1193 2043 1187 C 2030 1185 2020 1186 2020 1189 C 2021 1207 2039 1216 2073 1216 C 2093 1216 2114 1220 2120 1226 C 2126 1232 2111 1236 2075 1236 C 2029 1236 2020 1233 2020 1218 z" stroke-linecap="round" />
</g>
</g>
</g>
</svg>